<svg width="36" height="36" viewBox="0 0 36 36" fill="none" xmlns="http://www.w3.org/2000/svg">
<path d="M16.2405 8.19755L15.588 4.71155M16.2405 8.19755C18.2975 7.89456 20.3917 8.40327 22.0804 9.61615C23.7692 10.829 24.9201 12.651 25.29 14.697L25.7865 17.3505C26.4465 20.868 29.361 21.2325 29.6865 22.992C29.8515 23.871 30.0165 24.7485 29.2215 24.8985L10.1715 28.464C9.37801 28.6125 9.21301 27.732 9.04801 26.853C8.71951 25.095 11.307 23.7 10.65 20.1825C10.3215 18.429 10.977 21.9255 10.155 17.529C9.76018 15.4878 10.1745 13.373 11.3104 11.6317C12.4463 9.89031 14.2148 8.65885 16.242 8.19755H16.2405ZM5.67151 14.8125C5.88601 11.997 6.90451 9.62105 8.80051 7.52855M12.7695 27.978C13.1608 29.0928 13.9195 30.0415 14.921 30.6682C15.9226 31.2949 17.1074 31.5625 18.2811 31.4269C19.4548 31.2914 20.5475 30.7608 21.3798 29.9223C22.2121 29.0838 22.7346 27.9872 22.8615 26.8125L22.9965 26.0625L12.7695 27.978Z" stroke="#10B981" stroke-width="2" stroke-linecap="round" stroke-linejoin="round"/>
</svg>
