<svg width="36" height="36" viewBox="0 0 36 36" fill="none" xmlns="http://www.w3.org/2000/svg">
<path fill-rule="evenodd" clip-rule="evenodd" d="M24 21C25.9891 21 27.8968 21.7902 29.3033 23.1967C30.7098 24.6032 31.5 26.5109 31.5 28.5V31.5C31.5 31.8978 31.342 32.2794 31.0607 32.5607C30.7794 32.842 30.3978 33 30 33C29.6022 33 29.2206 32.842 28.9393 32.5607C28.658 32.2794 28.5 31.8978 28.5 31.5V28.5C28.5 27.3065 28.0259 26.1619 27.182 25.318C26.3381 24.4741 25.1935 24 24 24H12C10.8065 24 9.66193 24.4741 8.81802 25.318C7.97411 26.1619 7.5 27.3065 7.5 28.5V31.5C7.5 31.8978 7.34196 32.2794 7.06066 32.5607C6.77936 32.842 6.39782 33 6 33C5.60218 33 5.22064 32.842 4.93934 32.5607C4.65804 32.2794 4.5 31.8978 4.5 31.5V28.5C4.5 26.5109 5.29018 24.6032 6.6967 23.1967C8.10322 21.7902 10.0109 21 12 21H24ZM30 12C30.3978 12 30.7794 12.158 31.0607 12.4393C31.342 12.7206 31.5 13.1022 31.5 13.5V15H33C33.3978 15 33.7794 15.158 34.0607 15.4393C34.342 15.7206 34.5 16.1022 34.5 16.5C34.5 16.8978 34.342 17.2794 34.0607 17.5607C33.7794 17.842 33.3978 18 33 18H31.5V19.5C31.5 19.8978 31.342 20.2794 31.0607 20.5607C30.7794 20.842 30.3978 21 30 21C29.6022 21 29.2206 20.842 28.9393 20.5607C28.658 20.2794 28.5 19.8978 28.5 19.5V18H27C26.6022 18 26.2206 17.842 25.9393 17.5607C25.658 17.2794 25.5 16.8978 25.5 16.5C25.5 16.1022 25.658 15.7206 25.9393 15.4393C26.2206 15.158 26.6022 15 27 15H28.5V13.5C28.5 13.1022 28.658 12.7206 28.9393 12.4393C29.2206 12.158 29.6022 12 30 12ZM18 3C19.9891 3 21.8968 3.79018 23.3033 5.1967C24.7098 6.60322 25.5 8.51088 25.5 10.5C25.5 12.4891 24.7098 14.3968 23.3033 15.8033C21.8968 17.2098 19.9891 18 18 18C16.0109 18 14.1032 17.2098 12.6967 15.8033C11.2902 14.3968 10.5 12.4891 10.5 10.5C10.5 8.51088 11.2902 6.60322 12.6967 5.1967C14.1032 3.79018 16.0109 3 18 3ZM18 6C17.4091 6 16.8239 6.1164 16.2779 6.34254C15.732 6.56869 15.2359 6.90016 14.818 7.31802C14.4002 7.73588 14.0687 8.23196 13.8425 8.77792C13.6164 9.32389 13.5 9.90905 13.5 10.5C13.5 11.0909 13.6164 11.6761 13.8425 12.2221C14.0687 12.768 14.4002 13.2641 14.818 13.682C15.2359 14.0998 15.732 14.4313 16.2779 14.6575C16.8239 14.8836 17.4091 15 18 15C19.1935 15 20.3381 14.5259 21.182 13.682C22.0259 12.8381 22.5 11.6935 22.5 10.5C22.5 9.30653 22.0259 8.16193 21.182 7.31802C20.3381 6.47411 19.1935 6 18 6Z" fill="#3B82F6"/>
</svg>
