<svg width="36" height="36" viewBox="0 0 36 36" fill="none" xmlns="http://www.w3.org/2000/svg">
<path d="M20.25 29.25H19.5C15.258 29.25 13.1355 29.25 11.8185 27.9315C10.5 26.6145 10.5 24.492 10.5 20.25V17.25M10.5 17.25V15.75M10.5 17.25H20.25M20.25 17.25C20.25 15.483 20.25 14.598 20.7765 14.049C21.306 13.5 22.155 13.5 23.85 13.5H25.65C27.3465 13.5 28.1955 13.5 28.722 14.049C29.25 14.598 29.25 15.483 29.25 17.25C29.25 19.017 29.25 19.902 28.722 20.451C28.197 21 27.3465 21 25.65 21H23.85C22.1535 21 21.3045 21 20.7765 20.451C20.2485 19.902 20.25 19.017 20.25 17.25Z" stroke="#F97316" stroke-width="1.5" stroke-linecap="round" stroke-linejoin="round"/>
<path d="M10.5 3V12M15 7.5H6M20.25 29.25C20.25 27.483 20.25 26.598 20.7765 26.049C21.306 25.5 22.155 25.5 23.85 25.5H25.65C27.3465 25.5 28.1955 25.5 28.722 26.049C29.25 26.598 29.25 27.483 29.25 29.25C29.25 31.017 29.25 31.902 28.722 32.451C28.197 33 27.3465 33 25.65 33H23.85C22.1535 33 21.3045 33 20.7765 32.451C20.2485 31.902 20.25 31.017 20.25 29.25Z" stroke="#F97316" stroke-width="1.5" stroke-linecap="round" stroke-linejoin="round"/>
</svg>
