<svg width="24" height="24" viewBox="0 0 24 24" fill="none" xmlns="http://www.w3.org/2000/svg">
<g clip-path="url(#clip0_408_238)">
<path d="M11.1436 0.0117809C11.0544 0.0211664 10.7774 0.0540154 10.5334 0.0774791C8.98433 0.246417 7.27102 0.828315 5.88629 1.65423C4.12603 2.7054 2.69436 4.13669 1.6429 5.89646C0.821452 7.26673 0.276947 8.86226 0.0563281 10.5423C-0.018776 11.1195 -0.018776 12.8745 0.0563281 13.4517C0.276947 15.1317 0.821452 16.7273 1.6429 18.0975C2.69436 19.8573 4.12603 21.2886 5.88629 22.3398C9.03127 24.2169 12.9649 24.5219 16.4243 23.1563C16.9501 22.9498 18.0766 22.3773 18.3066 22.2037C18.5413 22.0254 18.6728 21.7109 18.6399 21.3965C18.5883 20.9226 18.2691 20.6035 17.795 20.5518C17.5603 20.5284 17.5227 20.5425 16.9172 20.8569C15.3306 21.6828 13.9741 22.0582 12.3406 22.1192C7.88124 22.2928 3.7646 19.4162 2.37047 15.1599C1.91985 13.7802 1.76025 12.4147 1.89638 11.0538C2.05128 9.50516 2.62865 7.79701 3.39846 6.62852C4.76442 4.54026 6.59508 3.10898 8.82474 2.38161C10.9464 1.68708 13.0306 1.68708 15.1523 2.38161C18.194 3.37646 20.6114 5.79322 21.6065 8.8341C22.55 11.7201 22.1933 14.6953 20.5785 17.3467C20.2265 17.9286 20.1842 18.1398 20.3438 18.5105C20.48 18.8202 20.7569 19.0267 21.0902 19.0689C21.2733 19.0877 21.3718 19.0736 21.5737 18.9798C21.7896 18.8812 21.8647 18.8108 22.0431 18.534C23.578 16.2064 24.2586 13.2687 23.9113 10.4953C23.4466 6.82562 21.3061 3.57356 18.0907 1.65423C16.7341 0.842393 15.1147 0.288652 13.4906 0.0774791C13.0775 0.0211664 11.4346 -0.0210682 11.1436 0.0117809Z" fill="white"/>
<path fill-rule="evenodd" clip-rule="evenodd" d="M10.4 16.2857C10.4 16.4752 10.3157 16.6568 10.1657 16.7908C10.0157 16.9247 9.81217 17 9.6 17H8.8C8.58783 17 8.38434 16.9247 8.23431 16.7908C8.08429 16.6568 8 16.4752 8 16.2857V7.71429C8 7.52485 8.08429 7.34316 8.23431 7.20921C8.38434 7.07526 8.58783 7 8.8 7H9.6C9.81217 7 10.0157 7.07526 10.1657 7.20921C10.3157 7.34316 10.4 7.52485 10.4 7.71429V16.2857ZM16 16.2857C16 16.4752 15.9157 16.6568 15.7657 16.7908C15.6157 16.9247 15.4122 17 15.2 17H14.4C14.1878 17 13.9843 16.9247 13.8343 16.7908C13.6843 16.6568 13.6 16.4752 13.6 16.2857V7.71429C13.6 7.52485 13.6843 7.34316 13.8343 7.20921C13.9843 7.07526 14.1878 7 14.4 7H15.2C15.4122 7 15.6157 7.07526 15.7657 7.20921C15.9157 7.34316 16 7.52485 16 7.71429V16.2857Z" fill="#F97316"/>
</g>
<defs>
<clipPath id="clip0_408_238">
<rect width="24" height="24" fill="white"/>
</clipPath>
</defs>
</svg>
