<svg width="25" height="32" viewBox="0 0 25 32" fill="none" xmlns="http://www.w3.org/2000/svg">
<path d="M15.25 27.25H14.5C10.258 27.25 8.1355 27.25 6.8185 25.9315C5.5 24.6145 5.5 22.492 5.5 18.25V15.25M5.5 15.25V13.75M5.5 15.25H15.25M15.25 15.25C15.25 13.483 15.25 12.598 15.7765 12.049C16.306 11.5 17.155 11.5 18.85 11.5H20.65C22.3465 11.5 23.1955 11.5 23.722 12.049C24.25 12.598 24.25 13.483 24.25 15.25C24.25 17.017 24.25 17.902 23.722 18.451C23.197 19 22.3465 19 20.65 19H18.85C17.1535 19 16.3045 19 15.7765 18.451C15.2485 17.902 15.25 17.017 15.25 15.25Z" stroke="#F97316" stroke-width="1.5" stroke-linecap="round" stroke-linejoin="round"/>
<path d="M5.5 1V10M10 5.5H1M15.25 27.25C15.25 25.483 15.25 24.598 15.7765 24.049C16.306 23.5 17.155 23.5 18.85 23.5H20.65C22.3465 23.5 23.1955 23.5 23.722 24.049C24.25 24.598 24.25 25.483 24.25 27.25C24.25 29.017 24.25 29.902 23.722 30.451C23.197 31 22.3465 31 20.65 31H18.85C17.1535 31 16.3045 31 15.7765 30.451C15.2485 29.902 15.25 29.017 15.25 27.25Z" stroke="#F97316" stroke-width="1.5" stroke-linecap="round" stroke-linejoin="round"/>
</svg>
