<svg width="24" height="24" viewBox="0 0 24 24" fill="none" xmlns="http://www.w3.org/2000/svg">
<path d="M11.001 10H13.001V15H11.001V10ZM11 16H13V18H11V16Z" fill="white"/>
<path d="M13.7681 4.19994C13.4201 3.54494 12.7421 3.13794 12.0001 3.13794C11.2581 3.13794 10.5801 3.54494 10.2321 4.20094L2.89408 18.0639C2.73163 18.3685 2.65119 18.7101 2.66066 19.0551C2.67013 19.4001 2.76918 19.7368 2.94808 20.0319C3.12448 20.3286 3.37535 20.574 3.67583 20.7438C3.97631 20.9136 4.31595 21.0019 4.66108 20.9999H19.3391C20.0471 20.9999 20.6881 20.6379 21.0531 20.0319C21.232 19.7368 21.331 19.4001 21.3405 19.0551C21.35 18.7101 21.2695 18.3685 21.1071 18.0639L13.7681 4.19994ZM4.66108 18.9999L12.0001 5.13694L19.3441 18.9999H4.66108Z" fill="white"/>
</svg>
