<svg width="24" height="24" viewBox="0 0 24 24" fill="none" xmlns="http://www.w3.org/2000/svg">
<g clip-path="url(#clip0_35_1115)">
<path d="M11.1436 0.0117657C11.0544 0.0211511 10.7774 0.0540002 10.5334 0.0774638C8.98433 0.246402 7.27102 0.8283 5.88629 1.65422C4.12603 2.70539 2.69436 4.13667 1.6429 5.89644C0.821452 7.26672 0.276947 8.86224 0.0563281 10.5422C-0.018776 11.1194 -0.018776 12.8745 0.0563281 13.4517C0.276947 15.1317 0.821452 16.7273 1.6429 18.0975C2.69436 19.8573 4.12603 21.2886 5.88629 22.3397C9.03127 24.2168 12.9649 24.5219 16.4243 23.1563C16.9501 22.9498 18.0766 22.3773 18.3066 22.2037C18.5413 22.0253 18.6728 21.7109 18.6399 21.3965C18.5883 20.9225 18.2691 20.6034 17.795 20.5518C17.5603 20.5284 17.5227 20.5424 16.9172 20.8568C15.3306 21.6828 13.9741 22.0582 12.3406 22.1192C7.88124 22.2928 3.7646 19.4162 2.37047 15.1599C1.91985 13.7802 1.76025 12.4146 1.89638 11.0537C2.05128 9.50515 2.62865 7.797 3.39846 6.62851C4.76442 4.54024 6.59508 3.10896 8.82474 2.38159C10.9464 1.68707 13.0306 1.68707 15.1523 2.38159C18.194 3.37645 20.6114 5.7932 21.6065 8.83409C22.55 11.7201 22.1933 14.6953 20.5785 17.3467C20.2265 17.9286 20.1842 18.1398 20.3438 18.5105C20.48 18.8202 20.7569 19.0267 21.0902 19.0689C21.2733 19.0877 21.3718 19.0736 21.5737 18.9798C21.7896 18.8812 21.8647 18.8108 22.0431 18.534C23.578 16.2064 24.2586 13.2687 23.9113 10.4953C23.4466 6.8256 21.3061 3.57354 18.0907 1.65422C16.7341 0.842378 15.1147 0.288636 13.4906 0.0774638C13.0775 0.0211511 11.4346 -0.0210834 11.1436 0.0117657Z" fill="white"/>
<path d="M9.59457 6.83497C8.83414 6.97106 8.2427 7.4591 7.93759 8.19586C7.86874 8.36793 7.82963 9.58647 7.82024 11.8515C7.81085 14.1838 7.82493 15.3288 7.85779 15.5024C8.0831 16.5771 9.15803 17.3279 10.233 17.159C10.4066 17.1308 10.6179 17.0792 10.7024 17.0416C10.7915 17.0041 12.1106 16.2533 13.6408 15.3663C15.4339 14.3246 16.4995 13.6817 16.6544 13.5409C17.565 12.7103 17.565 11.2837 16.6544 10.4531C16.3774 10.2043 10.9793 7.05083 10.6038 6.92413C10.3081 6.82089 9.87152 6.78335 9.59457 6.83497ZM10.585 9.02647C13.4953 10.6971 15.4198 11.8374 15.4433 11.9125C15.4574 11.9594 15.4574 12.0345 15.4433 12.0814C15.4245 12.1331 14.3496 12.7807 12.7724 13.6957C11.322 14.5357 10.0874 15.249 10.0264 15.2819C9.93724 15.3241 9.89499 15.3194 9.80111 15.2584L9.68845 15.188V8.81061L9.79172 8.74022C9.84805 8.69798 9.90907 8.66513 9.92315 8.66513C9.93724 8.66513 10.233 8.82938 10.585 9.02647Z" fill="#F97316"/>
</g>
<defs>
<clipPath id="clip0_35_1115">
<rect width="24" height="24" fill="white"/>
</clipPath>
</defs>
</svg>
