<svg width="31" height="33" viewBox="0 0 31 33" fill="none" xmlns="http://www.w3.org/2000/svg">
<path fill-rule="evenodd" clip-rule="evenodd" d="M20 18C21.9891 18 23.8968 18.7902 25.3033 20.1967C26.7098 21.6032 27.5 23.5109 27.5 25.5V28.5C27.5 28.8978 27.342 29.2794 27.0607 29.5607C26.7794 29.842 26.3978 30 26 30C25.6022 30 25.2206 29.842 24.9393 29.5607C24.658 29.2794 24.5 28.8978 24.5 28.5V25.5C24.5 24.3065 24.0259 23.1619 23.182 22.318C22.3381 21.4741 21.1935 21 20 21H8C6.80653 21 5.66193 21.4741 4.81802 22.318C3.97411 23.1619 3.5 24.3065 3.5 25.5V28.5C3.5 28.8978 3.34196 29.2794 3.06066 29.5607C2.77936 29.842 2.39782 30 2 30C1.60218 30 1.22064 29.842 0.93934 29.5607C0.658035 29.2794 0.5 28.8978 0.5 28.5V25.5C0.5 23.5109 1.29018 21.6032 2.6967 20.1967C4.10322 18.7902 6.01088 18 8 18H20ZM26 9C26.3978 9 26.7794 9.15804 27.0607 9.43934C27.342 9.72064 27.5 10.1022 27.5 10.5V12H29C29.3978 12 29.7794 12.158 30.0607 12.4393C30.342 12.7206 30.5 13.1022 30.5 13.5C30.5 13.8978 30.342 14.2794 30.0607 14.5607C29.7794 14.842 29.3978 15 29 15H27.5V16.5C27.5 16.8978 27.342 17.2794 27.0607 17.5607C26.7794 17.842 26.3978 18 26 18C25.6022 18 25.2206 17.842 24.9393 17.5607C24.658 17.2794 24.5 16.8978 24.5 16.5V15H23C22.6022 15 22.2206 14.842 21.9393 14.5607C21.658 14.2794 21.5 13.8978 21.5 13.5C21.5 13.1022 21.658 12.7206 21.9393 12.4393C22.2206 12.158 22.6022 12 23 12H24.5V10.5C24.5 10.1022 24.658 9.72064 24.9393 9.43934C25.2206 9.15804 25.6022 9 26 9ZM14 0C15.9891 0 17.8968 0.790176 19.3033 2.1967C20.7098 3.60322 21.5 5.51088 21.5 7.5C21.5 9.48912 20.7098 11.3968 19.3033 12.8033C17.8968 14.2098 15.9891 15 14 15C12.0109 15 10.1032 14.2098 8.6967 12.8033C7.29018 11.3968 6.5 9.48912 6.5 7.5C6.5 5.51088 7.29018 3.60322 8.6967 2.1967C10.1032 0.790176 12.0109 0 14 0ZM14 3C13.4091 3 12.8239 3.1164 12.2779 3.34254C11.732 3.56869 11.2359 3.90016 10.818 4.31802C10.4002 4.73588 10.0687 5.23196 9.84254 5.77792C9.6164 6.32389 9.5 6.90905 9.5 7.5C9.5 8.09095 9.6164 8.67611 9.84254 9.22208C10.0687 9.76804 10.4002 10.2641 10.818 10.682C11.2359 11.0998 11.732 11.4313 12.2779 11.6575C12.8239 11.8836 13.4091 12 14 12C15.1935 12 16.3381 11.5259 17.182 10.682C18.0259 9.83807 18.5 8.69347 18.5 7.5C18.5 6.30653 18.0259 5.16193 17.182 4.31802C16.3381 3.47411 15.1935 3 14 3Z" fill="#3B82F6"/>
</svg>
